<svg width="32" height="32" viewBox="0 0 32 32" fill="none" xmlns="http://www.w3.org/2000/svg">
  <path d="M10 22C11.1046 22 12 21.1046 12 20C12 18.8954 11.1046 18 10 18C8.89543 18 8 18.8954 8 20C8 21.1046 8.89543 22 10 22Z" fill="#818cf8" stroke="#818cf8" stroke-width="2" stroke-linecap="round" stroke-linejoin="round"/>
  <path d="M10 14V20" stroke="#a5b4fc" stroke-width="2" stroke-linecap="round" stroke-linejoin="round"/>
  <path d="M22 14C23.1046 14 24 13.1046 24 12C24 10.8954 23.1046 10 22 10C20.8954 10 20 10.8954 20 12C20 13.1046 20.8954 14 22 14Z" fill="#a5b4fc" stroke="#a5b4fc" stroke-width="2" stroke-linecap="round" stroke-linejoin="round"/>
  <path d="M10 14C10 12.9391 10.8954 12 12 12H20" stroke="#818cf8" stroke-width="2" stroke-linecap="round" stroke-linejoin="round"/>
</svg>